# 3ds Max Wavefront OBJ Exporter v0.97b - (c)2007 guruware
# File Created: 02.05.2019 13:19:43

mtllib S01.mtl

#
# object Snitch
#

v  -0.0565 14.5829 5.7077
v  -2.9152 9.6560 5.6155
v  2.7815 9.6434 5.6692
v  -4.6354 14.0085 2.3673
v  -4.6273 8.7140 0.2642
v  -7.4189 21.0511 -2.8885
v  -6.0231 14.8825 -1.3121
v  -6.6437 15.2734 -2.9576
v  -0.0434 6.0162 2.3049
v  -38.9804 34.0363 -3.0150
v  -12.0443 13.0791 -3.0377
v  -19.5626 22.6082 5.6295
v  4.5900 8.6936 0.3511
v  19.4828 22.5219 5.9974
v  12.0871 13.0258 -2.8103
v  39.1104 33.8636 -2.2791
v  4.5819 13.9882 2.4541
v  6.0426 14.8559 -1.1984
v  7.4951 21.0181 -2.7479
v  6.6958 15.2439 -2.8319
v  -0.0020 16.6859 0.4134
v  0.0317 17.9857 -2.8586
v  -2.8269 13.0588 -2.9508
v  0.0111 8.1192 -2.9894
v  2.8697 13.0462 -2.8971
# 25 vertices

vn -0.0062 0.5965 0.8026
vn -0.5339 -0.3129 0.7856
vn 0.5176 -0.3152 0.7955
vn -0.8514 0.4905 0.1861
vn -0.8499 -0.4867 -0.2021
vn 0.7375 0.5892 -0.3302
vn 0.1822 -0.1240 0.9754
vn 0.2354 0.2652 -0.9350
vn -0.0038 -0.9846 0.1746
vn -0.8573 0.4997 -0.1236
vn -0.1843 -0.9160 -0.3563
vn -0.1285 0.0560 0.9901
vn 0.8514 -0.4905 -0.1861
vn 0.1100 0.0555 0.9924
vn 0.1870 -0.9168 -0.3528
vn 0.8617 0.4959 -0.1074
vn 0.8499 0.4867 0.2021
vn -0.2011 -0.1231 0.9718
vn -0.7285 0.5924 -0.3440
vn -0.2165 0.2662 -0.9393
vn -0.0015 0.9278 0.3730
vn 0.0065 0.8781 -0.4785
vn -0.4550 -0.1634 -0.8754
vn 0.0062 -0.5965 -0.8026
vn 0.4706 -0.1654 -0.8667
# 25 vertex normals

o Snitch
g Snitch
usemtl 01___Default
s 1
f 1//1 2//2 3//3 
s 2
f 4//4 2//2 1//1 
s 4
f 2//2 4//4 5//5 
s 1
f 6//6 7//7 8//8 
s 8
f 2//2 5//5 9//9 
s 1
f 10//10 11//11 12//12 
s 16
f 9//9 3//3 2//2 
s 2
f 9//9 13//13 3//3 
s 1
f 14//14 15//15 16//16 
s 4
f 13//13 17//17 3//3 
s 1
f 18//18 19//19 20//20 
s 8
f 3//3 17//17 1//1 
s 16
f 21//21 1//1 17//17 
s 2
f 22//22 21//21 18//18 
f 18//18 20//20 22//22 
f 10//10 12//12 6//6 
s 32
f 21//21 4//4 1//1 
s 4
f 7//7 21//21 22//22 
f 7//7 22//22 8//8 
s 2
f 19//19 14//14 16//16 
s 1
f 23//23 4//4 21//21 
s 16
f 23//23 5//5 4//4 
s 2
f 23//23 24//24 5//5 
s 8
f 6//6 12//12 7//7 
s 1
f 9//9 5//5 24//24 
s 32
f 24//24 13//13 9//9 
s 8
f 24//24 25//25 13//13 
s 4
f 19//19 18//18 14//14 
s 1
f 17//17 13//13 25//25 
s 64
f 21//21 17//17 25//25 
s 128
f 21//21 7//7 23//23 
f 23//23 7//7 11//11 
f 7//7 12//12 11//11 
s 256
f 21//21 25//25 18//18 
f 25//25 15//15 18//18 
f 14//14 18//18 15//15 
s 512
f 25//25 24//24 23//23 
f 8//8 22//22 20//20 
f 19//19 16//16 15//15 
f 20//20 19//19 15//15 
f 20//20 15//15 25//25 
f 20//20 25//25 23//23 
f 8//8 20//20 23//23 
f 8//8 23//23 11//11 
f 6//6 8//8 11//11 
f 11//11 10//10 6//6 
# 0 polygons - 46 triangles

