# 3ds Max Wavefront OBJ Exporter v0.97b - (c)2007 guruware
# File Created: 02.05.2019 13:23:34

mtllib 2X.mtl

#
# object 2X
#

v  0.0000 5.3908 -8.1050
v  0.0000 5.5693 -7.9903
v  -4.0000 5.5693 -7.9903
v  -4.0000 5.3908 -8.1050
v  0.0000 5.7475 -7.8659
v  -4.0000 5.7475 -7.8659
v  0.0000 5.9253 -7.7318
v  -4.0000 5.9253 -7.7318
v  0.0000 6.1029 -7.5879
v  -4.0000 6.1029 -7.5879
v  0.0000 6.2801 -7.4342
v  -4.0000 6.2801 -7.4342
v  0.0000 6.4570 -7.2708
v  -4.0000 6.4570 -7.2708
v  0.0000 6.6604 -7.0672
v  -4.0000 6.6604 -7.0672
v  0.0000 6.9168 -6.7930
v  -4.0000 6.9168 -6.7930
v  0.0000 7.2265 -6.4481
v  -4.0000 7.2265 -6.4481
v  0.0000 7.5893 -6.0326
v  -4.0000 7.5893 -6.0326
v  0.0000 8.0053 -5.5465
v  -4.0000 8.0053 -5.5465
v  0.0000 8.4744 -4.9897
v  -4.0000 8.4744 -4.9897
v  0.0000 9.0509 -4.3162
v  -4.0000 9.0509 -4.3162
v  0.0000 9.5849 -3.7098
v  -4.0000 9.5849 -3.7098
v  0.0000 10.0763 -3.1703
v  -4.0000 10.0763 -3.1703
v  0.0000 10.5251 -2.6979
v  -4.0000 10.5251 -2.6979
v  0.0000 10.9314 -2.2925
v  -4.0000 10.9314 -2.2925
v  -0.0000 11.2951 -1.9542
v  -4.0000 11.2951 -1.9542
v  -0.0000 11.6348 -1.6638
v  -4.0000 11.6348 -1.6638
v  -0.0000 11.9691 -1.4024
v  -4.0000 11.9691 -1.4024
v  -0.0000 12.2979 -1.1698
v  -4.0000 12.2979 -1.1698
v  -0.0000 12.6212 -0.9661
v  -4.0000 12.6212 -0.9661
v  -0.0000 12.9391 -0.7913
v  -4.0000 12.9391 -0.7913
v  -0.0000 13.2515 -0.6454
v  -4.0000 13.2515 -0.6454
v  -0.0000 13.5622 -0.5249
v  -4.0000 13.5622 -0.5249
v  -0.0000 13.8746 -0.4263
v  -4.0000 13.8746 -0.4263
v  -0.0000 14.1888 -0.3497
v  -4.0000 14.1888 -0.3497
v  -0.0000 14.5048 -0.2949
v  -4.0000 14.5048 -0.2949
v  -0.0000 14.8227 -0.2620
v  -4.0000 14.8227 -0.2620
v  -0.0000 15.1424 -0.2511
v  -4.0000 15.1424 -0.2511
v  -0.0000 15.7557 -0.2885
v  -4.0000 15.7557 -0.2885
v  -0.0000 16.3350 -0.4009
v  -4.0000 16.3350 -0.4009
v  -0.0000 16.8803 -0.5881
v  -4.0000 16.8803 -0.5881
v  -0.0000 17.3916 -0.8502
v  -4.0000 17.3916 -0.8502
v  -0.0000 17.8689 -1.1872
v  -4.0000 17.8689 -1.1872
v  -0.0000 18.3121 -1.5991
v  -4.0000 18.3121 -1.5991
v  -0.0000 18.7028 -2.0752
v  -4.0000 18.7028 -2.0752
v  -0.0000 19.0225 -2.6049
v  -4.0000 19.0225 -2.6049
v  -0.0000 19.2711 -3.1882
v  -4.0000 19.2711 -3.1882
v  -0.0000 19.4487 -3.8250
v  -4.0000 19.4487 -3.8250
v  0.0000 19.5553 -4.5154
v  -4.0000 19.5553 -4.5154
v  0.0000 19.5908 -5.2593
v  -4.0000 19.5908 -5.2593
v  0.0000 19.5579 -5.9969
v  -4.0000 19.5579 -5.9969
v  0.0000 19.4593 -6.6828
v  -4.0000 19.4593 -6.6828
v  0.0000 19.2949 -7.3170
v  -4.0000 19.2949 -7.3170
v  0.0000 19.0648 -7.8994
v  -4.0000 19.0648 -7.8994
v  0.0000 18.7689 -8.4300
v  -4.0000 18.7689 -8.4300
v  0.0000 18.4072 -8.9089
v  -4.0000 18.4072 -8.9089
v  0.0000 17.9828 -9.3299
v  -4.0000 17.9828 -9.3299
v  0.0000 17.4988 -9.6870
v  -4.0000 17.4988 -9.6870
v  0.0000 16.9551 -9.9802
v  -4.0000 16.9551 -9.9802
v  0.0000 16.3517 -10.2094
v  -4.0000 16.3517 -10.2094
v  0.0000 15.6886 -10.3747
v  -4.0000 15.6886 -10.3747
v  0.0000 14.9658 -10.4761
v  -4.0000 14.9658 -10.4761
v  0.0000 14.7658 -8.4511
v  -4.0000 14.7658 -8.4511
v  0.0000 15.2483 -8.4240
v  -4.0000 15.2483 -8.4240
v  0.0000 15.6946 -8.3499
v  -4.0000 15.6946 -8.3499
v  0.0000 16.1045 -8.2290
v  -4.0000 16.1045 -8.2290
v  0.0000 16.4782 -8.0611
v  -4.0000 16.4782 -8.0611
v  0.0000 16.8156 -7.8464
v  -4.0000 16.8156 -7.8464
v  0.0000 17.1168 -7.5847
v  -4.0000 17.1168 -7.5847
v  0.0000 17.3762 -7.2837
v  -4.0000 17.3762 -7.2837
v  0.0000 17.5885 -6.9510
v  -4.0000 17.5885 -6.9510
v  0.0000 17.7535 -6.5866
v  -4.0000 17.7535 -6.5866
v  0.0000 17.8715 -6.1906
v  -4.0000 17.8715 -6.1906
v  0.0000 17.9422 -5.7628
v  -4.0000 17.9422 -5.7628
v  0.0000 17.9658 -5.3034
v  -4.0000 17.9658 -5.3034
v  0.0000 17.9435 -4.8678
v  -4.0000 17.9435 -4.8678
v  0.0000 17.8765 -4.4606
v  -4.0000 17.8765 -4.4606
v  0.0000 17.7648 -4.0817
v  -4.0000 17.7648 -4.0817
v  0.0000 17.6085 -3.7312
v  -4.0000 17.6085 -3.7312
v  -0.0000 17.4075 -3.4090
v  -4.0000 17.4075 -3.4090
v  -0.0000 17.1619 -3.1151
v  -4.0000 17.1619 -3.1151
v  -0.0000 16.8838 -2.8588
v  -4.0000 16.8838 -2.8588
v  -0.0000 16.5852 -2.6490
v  -4.0000 16.5852 -2.6490
v  -0.0000 16.2664 -2.4858
v  -4.0000 16.2664 -2.4858
v  -0.0000 15.9272 -2.3693
v  -4.0000 15.9272 -2.3693
v  -0.0000 15.5676 -2.2994
v  -4.0000 15.5676 -2.2994
v  -0.0000 15.1877 -2.2761
v  -4.0000 15.1877 -2.2761
v  -0.0000 14.8101 -2.3016
v  -4.0000 14.8101 -2.3016
v  -0.0000 14.4253 -2.3784
v  -4.0000 14.4253 -2.3784
v  -0.0000 14.0332 -2.5062
v  -4.0000 14.0332 -2.5062
v  0.0000 13.6339 -2.6853
v  -4.0000 13.6339 -2.6853
v  0.0000 13.2273 -2.9154
v  -4.0000 13.2273 -2.9154
v  0.0000 12.8135 -3.1968
v  -4.0000 12.8135 -3.1968
v  0.0000 12.3711 -3.5508
v  -4.0000 12.3711 -3.5508
v  0.0000 11.8790 -3.9990
v  -4.0000 11.8790 -3.9990
v  0.0000 11.3372 -4.5415
v  -4.0000 11.3372 -4.5415
v  0.0000 10.7456 -5.1782
v  -4.0000 10.7456 -5.1782
v  0.0000 10.1042 -5.9091
v  -4.0000 10.1042 -5.9091
v  0.0000 9.4131 -6.7343
v  -4.0000 9.4131 -6.7343
v  0.0000 8.9652 -7.2743
v  -4.0000 8.9652 -7.2743
v  0.0000 8.5352 -7.7705
v  -4.0000 8.5352 -7.7705
v  0.0000 8.1231 -8.2228
v  -4.0000 8.1231 -8.2228
v  0.0000 7.7289 -8.6313
v  -4.0000 7.7289 -8.6313
v  0.0000 7.3525 -8.9959
v  -4.0000 7.3525 -8.9959
v  0.0000 6.9939 -9.3167
v  -4.0000 6.9939 -9.3167
v  0.0000 6.6433 -9.6019
v  -4.0000 6.6433 -9.6019
v  0.0000 6.2907 -9.8600
v  -4.0000 6.2907 -9.8600
v  0.0000 5.9361 -10.0908
v  -4.0000 5.9361 -10.0908
v  0.0000 5.5795 -10.2945
v  -4.0000 5.5795 -10.2945
v  0.0000 5.2209 -10.4709
v  -4.0000 5.2209 -10.4709
v  0.0000 4.8603 -10.6202
v  -4.0000 4.8603 -10.6202
v  0.0000 4.6397 -10.6968
v  -4.0000 4.6397 -10.6968
v  0.0000 4.4160 -10.7582
v  -4.0000 4.4160 -10.7582
v  0.0000 4.1892 -10.8043
v  -4.0000 4.1892 -10.8043
v  0.0000 3.9595 -10.8351
v  -4.0000 3.9595 -10.8351
v  0.0000 3.7267 -10.8507
v  -4.0000 3.7267 -10.8507
v  0.0000 3.4908 -10.8511
v  -4.0000 3.4908 -10.8511
v  0.0000 3.4908 -0.2261
v  -4.0000 3.4908 -0.2261
v  -0.0000 5.3908 -0.2261
v  -4.0000 5.3908 -0.2261
v  -0.0000 3.4908 3.5692
v  -0.0000 9.0662 7.6239
v  -4.0000 9.0662 7.6239
v  -4.0000 3.4908 3.5692
v  -0.0000 10.1748 8.3685
v  -4.0000 10.1748 8.3685
v  -0.0000 9.1803 9.0427
v  -4.0000 9.1803 9.0427
v  -0.0000 3.4908 13.0724
v  -4.0000 3.4908 13.0724
v  -0.0000 3.4908 15.6724
v  -4.0000 3.4908 15.6724
v  -0.0000 11.8889 9.6759
v  -4.0000 11.8889 9.6759
v  -0.0000 19.5158 15.2224
v  -4.0000 19.5158 15.2224
v  -0.0000 19.5158 12.8923
v  -4.0000 19.5158 12.8923
v  -0.0000 15.2853 9.7278
v  -4.0000 15.2853 9.7278
v  -0.0000 14.9714 9.4883
v  -4.0000 14.9714 9.4883
v  -0.0000 14.6621 9.2592
v  -4.0000 14.6621 9.2592
v  -0.0000 14.3574 9.0404
v  -4.0000 14.3574 9.0404
v  -0.0000 14.0574 8.8320
v  -4.0000 14.0574 8.8320
v  -0.0000 13.7620 8.6339
v  -4.0000 13.7620 8.6339
v  -0.0000 13.4713 8.4462
v  -4.0000 13.4713 8.4462
v  -0.0000 13.7004 8.3131
v  -4.0000 13.7004 8.3131
v  -0.0000 13.9652 8.1491
v  -4.0000 13.9652 8.1491
v  -0.0000 14.2656 7.9540
v  -4.0000 14.2656 7.9540
v  -0.0000 14.6017 7.7280
v  -4.0000 14.6017 7.7280
v  -0.0000 14.9733 7.4709
v  -4.0000 14.9733 7.4709
v  -0.0000 15.3806 7.1829
v  -4.0000 15.3806 7.1829
v  -0.0000 19.5158 4.2302
v  -4.0000 19.5158 4.2302
v  -0.0000 19.5158 1.7224
v  -4.0000 19.5158 1.7224
v  -0.0000 11.8068 7.1821
v  -4.0000 11.8068 7.1821
v  -0.0000 3.4908 1.0224
v  -4.0000 3.4908 1.0224
# 276 vertices

vn -0.5532 0.3995 0.7310
vn 0.7115 -0.3911 0.5838
vn -0.7115 -0.3911 0.5838
vn 0.5532 0.3995 0.7310
vn 0.7113 -0.4129 0.5689
vn -0.7113 -0.4129 0.5689
vn 0.7111 -0.4331 0.5539
vn -0.7111 -0.4331 0.5539
vn 0.7109 -0.4519 0.5390
vn -0.7109 -0.4519 0.5390
vn -0.7036 -0.4739 0.5295
vn 0.7036 -0.4739 0.5295
vn 0.7117 -0.4870 0.5063
vn -0.7117 -0.4870 0.5063
vn 0.7108 -0.5058 0.4888
vn -0.7108 -0.5058 0.4888
vn 0.7094 -0.5196 0.4762
vn -0.7094 -0.5196 0.4762
vn 0.7087 -0.5282 0.4677
vn -0.7087 -0.5282 0.4677
vn 0.7082 -0.5341 0.4617
vn -0.7082 -0.5341 0.4617
vn -0.7063 -0.5397 0.4582
vn 0.7063 -0.5397 0.4582
vn 0.7062 -0.5396 0.4583
vn -0.7062 -0.5396 0.4583
vn 0.7055 -0.5351 0.4646
vn -0.7055 -0.5351 0.4646
vn 0.7052 -0.5282 0.4730
vn -0.7052 -0.5282 0.4730
vn 0.7048 -0.5194 0.4832
vn -0.7048 -0.5194 0.4832
vn 0.7041 -0.5082 0.4959
vn -0.7041 -0.5082 0.4959
vn 0.7032 -0.4933 0.5120
vn -0.7032 -0.4933 0.5120
vn 0.7024 -0.4737 0.5312
vn -0.7024 -0.4737 0.5312
vn 0.7023 -0.4507 0.5511
vn -0.7023 -0.4507 0.5511
vn 0.7017 -0.4253 0.5716
vn -0.7017 -0.4253 0.5716
vn 0.7011 -0.3960 0.5929
vn -0.7011 -0.3960 0.5929
vn 0.7005 -0.3623 0.6149
vn -0.7005 -0.3623 0.6149
vn 0.6998 -0.3234 0.6370
vn -0.6998 -0.3234 0.6370
vn 0.6997 -0.2805 0.6571
vn -0.6997 -0.2805 0.6571
vn 0.6999 -0.2367 0.6738
vn -0.6999 -0.2367 0.6738
vn 0.6997 -0.1923 0.6881
vn -0.6997 -0.1923 0.6881
vn 0.6996 -0.1458 0.6995
vn -0.6996 -0.1458 0.6995
vn 0.6995 -0.0978 0.7079
vn -0.6995 -0.0978 0.7079
vn 0.6995 -0.0490 0.7130
vn -0.6995 -0.0490 0.7130
vn 0.6965 0.0096 0.7174
vn -0.6965 0.0096 0.7174
vn 0.6927 0.0908 0.7155
vn -0.6927 0.0908 0.7155
vn 0.6918 0.1864 0.6976
vn -0.6918 0.1864 0.6976
vn 0.6914 0.2828 0.6648
vn -0.6914 0.2828 0.6648
vn 0.6916 0.3740 0.6179
vn -0.6916 0.3740 0.6179
vn 0.6924 0.4547 0.5602
vn -0.6924 0.4547 0.5602
vn 0.6923 0.5258 0.4943
vn -0.6923 0.5258 0.4943
vn 0.6912 0.5902 0.4170
vn -0.6912 0.5902 0.4170
vn 0.6917 0.6429 0.3290
vn -0.6917 0.6429 0.3290
vn 0.6927 0.6805 0.2388
vn -0.6927 0.6805 0.2388
vn 0.6941 0.7037 0.1519
vn -0.6941 0.7037 0.1519
vn 0.6955 0.7149 0.0720
vn -0.6955 0.7149 0.0720
vn 0.6969 0.7172 0.0011
vn -0.6969 0.7172 0.0011
vn 0.6962 0.7147 -0.0671
vn -0.6962 0.7147 -0.0671
vn 0.6949 0.7051 -0.1416
vn -0.6949 0.7051 -0.1416
vn 0.6936 0.6850 -0.2232
vn -0.6936 0.6850 -0.2232
vn 0.6926 0.6519 -0.3089
vn -0.6926 0.6519 -0.3089
vn 0.6919 0.6048 -0.3943
vn -0.6919 0.6048 -0.3943
vn 0.6914 0.5440 -0.4753
vn -0.6914 0.5440 -0.4753
vn 0.6911 0.4703 -0.5488
vn -0.6911 0.4703 -0.5488
vn 0.6916 0.3867 -0.6100
vn -0.6916 0.3867 -0.6100
vn 0.6926 0.2999 -0.6560
vn -0.6926 0.2999 -0.6560
vn 0.6940 0.2153 -0.6870
vn -0.6940 0.2153 -0.6870
vn 0.6955 0.1370 -0.7054
vn -0.6955 0.1370 -0.7054
vn 0.5753 -0.5056 -0.6430
vn -0.5753 -0.5056 -0.6430
vn 0.5752 -0.6213 0.5321
vn -0.5752 -0.6213 0.5321
vn 0.7195 -0.0764 0.6902
vn -0.7195 -0.0764 0.6902
vn 0.7212 -0.1550 0.6752
vn -0.7212 -0.1550 0.6752
vn 0.7226 -0.2400 0.6482
vn -0.7226 -0.2400 0.6482
vn 0.7237 -0.3275 0.6074
vn -0.7237 -0.3275 0.6074
vn 0.7242 -0.4124 0.5526
vn -0.7242 -0.4124 0.5526
vn 0.7237 -0.4890 0.4870
vn -0.7237 -0.4890 0.4870
vn 0.7236 -0.5538 0.4120
vn -0.7236 -0.5538 0.4120
vn 0.7235 -0.6069 0.3289
vn -0.7235 -0.6069 0.3289
vn 0.7227 -0.6475 0.2418
vn -0.7227 -0.6475 0.2418
vn 0.7215 -0.6747 0.1556
vn -0.7215 -0.6747 0.1556
vn 0.7200 -0.6900 0.0745
vn -0.7200 -0.6900 0.0745
vn 0.7188 -0.6952 0.0000
vn -0.7188 -0.6952 0.0000
vn 0.7199 -0.6901 -0.0742
vn -0.7199 -0.6901 -0.0742
vn 0.7213 -0.6752 -0.1544
vn -0.7213 -0.6752 -0.1544
vn 0.7224 -0.6489 -0.2391
vn -0.7224 -0.6489 -0.2391
vn 0.7230 -0.6100 -0.3243
vn -0.7230 -0.6100 -0.3243
vn 0.7230 -0.5594 -0.4053
vn -0.7230 -0.5594 -0.4053
vn 0.7220 -0.5009 -0.4772
vn -0.7220 -0.5009 -0.4772
vn 0.7223 -0.4341 -0.5383
vn -0.7223 -0.4341 -0.5383
vn 0.7232 -0.3567 -0.5914
vn -0.7232 -0.3567 -0.5914
vn 0.7234 -0.2701 -0.6354
vn -0.7234 -0.2701 -0.6354
vn 0.7231 -0.1786 -0.6673
vn -0.7231 -0.1786 -0.6673
vn 0.7221 -0.0874 -0.6862
vn -0.7221 -0.0874 -0.6862
vn 0.7219 0.0022 -0.6920
vn -0.7219 0.0022 -0.6920
vn 0.7219 0.0912 -0.6859
vn -0.7219 0.0912 -0.6859
vn 0.7207 0.1756 -0.6707
vn -0.7207 0.1756 -0.6707
vn 0.7193 0.2502 -0.6481
vn -0.7193 0.2502 -0.6481
vn 0.7178 0.3143 -0.6213
vn -0.7178 0.3143 -0.6213
vn 0.7164 0.3683 -0.5925
vn -0.7164 0.3683 -0.5925
vn 0.7160 0.4147 -0.5616
vn -0.7160 0.4147 -0.5616
vn 0.7144 0.4545 -0.5321
vn -0.7144 0.4545 -0.5321
vn 0.7125 0.4846 -0.5075
vn -0.7125 0.4846 -0.5075
vn 0.7112 0.5062 -0.4877
vn -0.7112 0.5062 -0.4877
vn 0.7103 0.5224 -0.4717
vn -0.7103 0.5224 -0.4717
vn 0.7097 0.5348 -0.4585
vn -0.7097 0.5348 -0.4585
vn 0.7077 0.5428 -0.4523
vn -0.7077 0.5428 -0.4523
vn 0.7047 0.5412 -0.4588
vn -0.7047 0.5412 -0.4588
vn 0.7043 0.5307 -0.4715
vn -0.7043 0.5307 -0.4715
vn 0.7039 0.5181 -0.4859
vn -0.7039 0.5181 -0.4859
vn 0.7033 0.5031 -0.5022
vn -0.7033 0.5031 -0.5022
vn 0.7027 0.4848 -0.5208
vn -0.7027 0.4848 -0.5208
vn 0.7019 0.4624 -0.5419
vn -0.7019 0.4624 -0.5419
vn 0.7014 0.4355 -0.5642
vn -0.7014 0.4355 -0.5642
vn 0.7010 0.4053 -0.5868
vn -0.7010 0.4053 -0.5868
vn 0.7006 0.3717 -0.6091
vn -0.7006 0.3717 -0.6091
vn 0.7002 0.3348 -0.6305
vn -0.7002 0.3348 -0.6305
vn 0.6999 0.2944 -0.6507
vn -0.6999 0.2944 -0.6507
vn 0.7006 0.2536 -0.6669
vn -0.7006 0.2536 -0.6669
vn 0.6998 0.2118 -0.6822
vn -0.6998 0.2118 -0.6822
vn 0.6997 0.1658 -0.6949
vn -0.6997 0.1658 -0.6949
vn 0.6997 0.1188 -0.7045
vn -0.6997 0.1188 -0.7045
vn 0.6997 0.0714 -0.7108
vn -0.6997 0.0714 -0.7108
vn 0.6999 0.0244 -0.7139
vn -0.6999 0.0244 -0.7139
vn 0.5773 -0.5770 -0.5778
vn -0.5773 -0.5770 -0.5778
vn 0.5774 -0.5774 0.5774
vn -0.5774 -0.5774 0.5774
vn 0.5774 0.5774 0.5774
vn -0.5774 0.5774 0.5774
vn 0.6178 -0.7007 0.3568
vn 0.7029 -0.4075 0.5829
vn -0.7029 -0.4075 0.5829
vn -0.6178 -0.7007 0.3568
vn -0.5598 -0.8286 0.0018
vn 0.5598 -0.8286 0.0018
vn 0.7048 -0.4041 -0.5831
vn -0.7048 -0.4041 -0.5831
vn 0.6169 -0.6991 -0.3615
vn -0.6169 -0.6991 -0.3615
vn 0.5516 -0.3817 0.7417
vn -0.5516 -0.3817 0.7417
vn 0.8648 -0.0022 0.5021
vn -0.8648 -0.0022 0.5021
vn 0.5513 0.3786 0.7435
vn -0.5513 0.3786 0.7435
vn 0.6188 0.7024 -0.3517
vn -0.6188 0.7024 -0.3517
vn 0.7082 0.4256 -0.5634
vn -0.7082 0.4256 -0.5634
vn 0.7055 0.4258 -0.5665
vn -0.7055 0.4258 -0.5665
vn 0.7054 0.4177 -0.5726
vn -0.7054 0.4177 -0.5726
vn 0.7054 0.4090 -0.5790
vn -0.7054 0.4090 -0.5790
vn 0.7053 0.3997 -0.5855
vn -0.7053 0.3997 -0.5855
vn 0.7052 0.3898 -0.5923
vn -0.7052 0.3898 -0.5923
vn 0.9533 0.3018 0.0071
vn -0.9533 0.3018 0.0071
vn 0.7039 0.3654 0.6091
vn -0.7039 0.3654 0.6091
vn 0.7047 0.3800 0.5991
vn -0.7047 0.3800 0.5991
vn 0.7053 0.3909 0.5914
vn -0.7053 0.3909 0.5914
vn 0.7057 0.3992 0.5854
vn -0.7057 0.3992 0.5854
vn 0.7059 0.4059 0.5804
vn -0.7059 0.4059 0.5804
vn 0.7066 0.4099 0.5768
vn -0.7066 0.4099 0.5768
vn 0.6172 0.6996 0.3601
vn -0.6172 0.6996 0.3601
vn 0.5517 0.3831 -0.7408
vn -0.5517 0.3831 -0.7408
vn 0.8655 0.0053 -0.5009
vn -0.8655 0.0053 -0.5009
vn 0.5510 -0.3754 -0.7453
vn -0.5510 -0.3754 -0.7453
# 276 vertex normals

o 2X
g 2X
usemtl 01___Default
s 1
f 1//1 2//2 3//3 4//4 
s 3
f 2//2 5//5 6//6 3//3 
s 2
f 5//5 7//7 8//8 6//6 
f 7//7 9//9 10//10 8//8 
f 9//9 11//11 12//12 10//10 
f 11//11 13//13 14//14 12//12 
f 13//13 15//15 16//16 14//14 
f 15//15 17//17 18//18 16//16 
f 17//17 19//19 20//20 18//18 
f 19//19 21//21 22//22 20//20 
f 21//21 23//23 24//24 22//22 
f 23//23 25//25 26//26 24//24 
f 25//25 27//27 28//28 26//26 
f 27//27 29//29 30//30 28//28 
f 29//29 31//31 32//32 30//30 
f 31//31 33//33 34//34 32//32 
f 33//33 35//35 36//36 34//34 
f 35//35 37//37 38//38 36//36 
f 37//37 39//39 40//40 38//38 
f 39//39 41//41 42//42 40//40 
f 41//41 43//43 44//44 42//42 
f 43//43 45//45 46//46 44//44 
f 45//45 47//47 48//48 46//46 
f 47//47 49//49 50//50 48//48 
f 49//49 51//51 52//52 50//50 
f 51//51 53//53 54//54 52//52 
f 53//53 55//55 56//56 54//54 
f 55//55 57//57 58//58 56//56 
f 57//57 59//59 60//60 58//58 
f 59//59 61//61 62//62 60//60 
f 61//61 63//63 64//64 62//62 
f 63//63 65//65 66//66 64//64 
f 65//65 67//67 68//68 66//66 
f 67//67 69//69 70//70 68//68 
f 69//69 71//71 72//72 70//70 
f 71//71 73//73 74//74 72//72 
f 73//73 75//75 76//76 74//74 
f 75//75 77//77 78//78 76//76 
f 77//77 79//79 80//80 78//78 
f 79//79 81//81 82//82 80//80 
f 81//81 83//83 84//84 82//82 
f 83//83 85//85 86//86 84//84 
f 85//85 87//87 88//88 86//86 
f 87//87 89//89 90//90 88//88 
f 89//89 91//91 92//92 90//90 
f 91//91 93//93 94//94 92//92 
f 93//93 95//95 96//96 94//94 
f 95//95 97//97 98//98 96//96 
f 97//97 99//99 100//100 98//98 
f 99//99 101//101 102//102 100//100 
f 101//101 103//103 104//104 102//102 
f 103//103 105//105 106//106 104//104 
f 105//105 107//107 108//108 106//106 
f 107//107 109//109 110//110 108//108 
s 4
f 109//109 111//111 112//112 110//110 
s 2
f 111//111 113//113 114//114 112//112 
f 113//113 115//115 116//116 114//114 
f 115//115 117//117 118//118 116//116 
f 117//117 119//119 120//120 118//118 
f 119//119 121//121 122//122 120//120 
f 121//121 123//123 124//124 122//122 
f 123//123 125//125 126//126 124//124 
f 125//125 127//127 128//128 126//126 
f 127//127 129//129 130//130 128//128 
f 129//129 131//131 132//132 130//130 
f 131//131 133//133 134//134 132//132 
f 133//133 135//135 136//136 134//134 
f 135//135 137//137 138//138 136//136 
f 137//137 139//139 140//140 138//138 
f 139//139 141//141 142//142 140//140 
f 141//141 143//143 144//144 142//142 
f 143//143 145//145 146//146 144//144 
f 145//145 147//147 148//148 146//146 
f 147//147 149//149 150//150 148//148 
f 149//149 151//151 152//152 150//150 
f 151//151 153//153 154//154 152//152 
f 153//153 155//155 156//156 154//154 
f 155//155 157//157 158//158 156//156 
f 157//157 159//159 160//160 158//158 
f 159//159 161//161 162//162 160//160 
f 161//161 163//163 164//164 162//162 
f 163//163 165//165 166//166 164//164 
f 165//165 167//167 168//168 166//166 
f 167//167 169//169 170//170 168//168 
f 169//169 171//171 172//172 170//170 
f 171//171 173//173 174//174 172//172 
f 173//173 175//175 176//176 174//174 
f 175//175 177//177 178//178 176//176 
f 177//177 179//179 180//180 178//178 
f 179//179 181//181 182//182 180//180 
f 181//181 183//183 184//184 182//182 
f 183//183 185//185 186//186 184//184 
f 185//185 187//187 188//188 186//186 
f 187//187 189//189 190//190 188//188 
f 189//189 191//191 192//192 190//190 
f 191//191 193//193 194//194 192//192 
f 193//193 195//195 196//196 194//194 
f 195//195 197//197 198//198 196//196 
f 197//197 199//199 200//200 198//198 
f 199//199 201//201 202//202 200//200 
f 201//201 203//203 204//204 202//202 
f 203//203 205//205 206//206 204//204 
f 205//205 207//207 208//208 206//206 
s 4
f 207//207 209//209 210//210 208//208 
f 209//209 211//211 212//212 210//210 
f 211//211 213//213 214//214 212//212 
f 213//213 215//215 216//216 214//214 
f 215//215 217//217 218//218 216//216 
f 217//217 219//219 220//220 218//218 
s 2
f 219//219 221//221 222//222 220//220 
s 4
f 221//221 223//223 224//224 222//222 
s 2
f 223//223 1//1 4//4 224//224 
s 1
f 225//225 226//226 227//227 228//228 
s 4
f 226//226 229//229 230//230 227//227 
s 2
f 229//229 231//231 232//232 230//230 
s 4
f 231//231 233//233 234//234 232//232 
s 2
f 233//233 235//235 236//236 234//234 
s 4
f 235//235 237//237 238//238 236//236 
s 2
f 237//237 239//239 240//240 238//238 
s 4
f 239//239 241//241 242//242 240//240 
s 2
f 241//241 243//243 244//244 242//242 
s 4
f 243//243 245//245 246//246 244//244 
f 245//245 247//247 248//248 246//246 
f 247//247 249//249 250//250 248//248 
f 249//249 251//251 252//252 250//250 
f 251//251 253//253 254//254 252//252 
f 253//253 255//255 256//256 254//254 
s 2
f 255//255 257//257 258//258 256//256 
f 257//257 259//259 260//260 258//258 
f 259//259 261//261 262//262 260//260 
f 261//261 263//263 264//264 262//262 
f 263//263 265//265 266//266 264//264 
f 265//265 267//267 268//268 266//266 
s 4
f 267//267 269//269 270//270 268//268 
s 2
f 269//269 271//271 272//272 270//270 
s 4
f 271//271 273//273 274//274 272//272 
s 2
f 273//273 275//275 276//276 274//274 
s 4
f 275//275 225//225 228//228 276//276 
s 16
f 109//109 107//107 113//113 111//111 
f 107//107 105//105 115//115 113//113 
f 105//105 103//103 117//117 115//115 
f 101//101 119//119 117//117 103//103 
f 99//99 121//121 119//119 101//101 
f 97//97 123//123 121//121 99//99 
f 95//95 125//125 123//123 97//97 
f 93//93 127//127 125//125 95//95 
f 91//91 129//129 127//127 93//93 
f 89//89 131//131 129//129 91//91 
f 87//87 133//133 131//131 89//89 
f 85//85 135//135 133//133 87//87 
f 83//83 137//137 135//135 85//85 
f 83//83 81//81 139//139 137//137 
f 81//81 79//79 141//141 139//139 
f 79//79 77//77 143//143 141//141 
f 77//77 75//75 145//145 143//143 
f 75//75 73//73 147//147 145//145 
f 73//73 71//71 149//149 147//147 
f 71//71 69//69 151//151 149//149 
f 69//69 67//67 153//153 151//151 
f 67//67 65//65 155//155 153//153 
f 63//63 157//157 155//155 65//65 
f 61//61 159//159 157//157 63//63 
f 59//59 161//161 159//159 61//61 
f 57//57 55//55 161//161 59//59 
f 55//55 53//53 163//163 161//161 
f 51//51 165//165 163//163 53//53 
f 49//49 47//47 165//165 51//51 
f 47//47 45//45 167//167 165//165 
f 43//43 169//169 167//167 45//45 
f 41//41 171//171 169//169 43//43 
f 39//39 37//37 171//171 41//41 
f 37//37 35//35 173//173 171//171 
f 35//35 33//33 175//175 173//173 
f 33//33 31//31 177//177 175//175 
f 29//29 179//179 177//177 31//31 
f 27//27 181//181 179//179 29//29 
f 25//25 183//183 181//181 27//27 
f 23//23 21//21 183//183 25//25 
f 217//217 215//215 221//221 219//219 
f 213//213 211//211 221//221 215//215 
f 209//209 207//207 221//221 211//211 
f 205//205 203//203 221//221 207//207 
f 221//221 203//203 1//1 223//223 
f 201//201 199//199 1//1 203//203 
f 197//197 2//2 1//1 199//199 
f 195//195 5//5 2//2 197//197 
f 195//195 193//193 7//7 5//5 
f 193//193 191//191 9//9 7//7 
f 191//191 13//13 11//11 9//9 
f 189//189 15//15 13//13 191//191 
f 189//189 187//187 17//17 15//15 
f 187//187 185//185 19//19 17//17 
f 185//185 183//183 21//21 19//19 
f 273//273 226//226 225//225 275//275 
f 273//273 237//237 229//229 226//226 
f 237//237 243//243 241//241 239//239 
f 237//237 247//247 245//245 243//243 
f 237//237 251//251 249//249 247//247 
f 233//233 231//231 237//237 235//235 
f 229//229 237//237 231//231 
f 269//269 267//267 273//273 271//271 
f 265//265 263//263 273//273 267//267 
f 261//261 259//259 273//273 263//263 
f 237//237 255//255 253//253 251//251 
f 257//257 255//255 273//273 259//259 
f 255//255 237//237 273//273 
f 110//110 112//112 114//114 108//108 
f 108//108 114//114 116//116 106//106 
f 106//106 116//116 118//118 104//104 
f 102//102 104//104 118//118 120//120 
f 100//100 102//102 120//120 122//122 
f 98//98 100//100 122//122 124//124 
f 96//96 98//98 124//124 126//126 
f 94//94 96//96 126//126 128//128 
f 92//92 94//94 128//128 130//130 
f 90//90 92//92 130//130 132//132 
f 88//88 90//90 132//132 134//134 
f 86//86 88//88 134//134 136//136 
f 84//84 86//86 136//136 138//138 
f 84//84 138//138 140//140 82//82 
f 82//82 140//140 142//142 80//80 
f 80//80 142//142 144//144 78//78 
f 78//78 144//144 146//146 76//76 
f 76//76 146//146 148//148 74//74 
f 74//74 148//148 150//150 72//72 
f 72//72 150//150 152//152 70//70 
f 70//70 152//152 154//154 68//68 
f 68//68 154//154 156//156 66//66 
f 64//64 66//66 156//156 158//158 
f 62//62 64//64 158//158 160//160 
f 60//60 62//62 160//160 162//162 
f 58//58 60//60 162//162 56//56 
f 56//56 162//162 164//164 54//54 
f 52//52 54//54 164//164 166//166 
f 50//50 52//52 166//166 48//48 
f 48//48 166//166 168//168 46//46 
f 44//44 46//46 168//168 170//170 
f 42//42 44//44 170//170 172//172 
f 40//40 42//42 172//172 38//38 
f 38//38 172//172 174//174 36//36 
f 36//36 174//174 176//176 34//34 
f 34//34 176//176 178//178 32//32 
f 30//30 32//32 178//178 180//180 
f 28//28 30//30 180//180 182//182 
f 26//26 28//28 182//182 184//184 
f 24//24 26//26 184//184 22//22 
f 218//218 220//220 222//222 216//216 
f 214//214 216//216 222//222 212//212 
f 210//210 212//212 222//222 208//208 
f 206//206 208//208 222//222 204//204 
f 222//222 224//224 4//4 204//204 
f 202//202 204//204 4//4 200//200 
f 198//198 200//200 4//4 3//3 
f 196//196 198//198 3//3 6//6 
f 196//196 6//6 8//8 194//194 
f 194//194 8//8 10//10 192//192 
f 192//192 10//10 12//12 14//14 
f 190//190 192//192 14//14 16//16 
f 190//190 16//16 18//18 188//188 
f 188//188 18//18 20//20 186//186 
f 186//186 20//20 22//22 184//184 
f 274//274 276//276 228//228 227//227 
f 274//274 227//227 230//230 238//238 
f 238//238 240//240 242//242 244//244 
f 238//238 244//244 246//246 248//248 
f 238//238 248//248 250//250 252//252 
f 234//234 236//236 238//238 232//232 
f 230//230 232//232 238//238 
f 270//270 272//272 274//274 268//268 
f 266//266 268//268 274//274 264//264 
f 262//262 264//264 274//274 260//260 
f 238//238 252//252 254//254 256//256 
f 258//258 260//260 274//274 256//256 
f 256//256 274//274 238//238 
# 270 polygons - 4 triangles

